#!OML:ASF F:\VICON\USERDATA\INSTALL\rory3\rory3.ASF
:FULLY-SPECIFIED
:DEGREES
375
root -3.68899 18.343 12.3983 -171.151 76.0156 185.72
lowerback 12.1015 4.87986 6.79929
upperback 2.07182 7.4721 0.703194
thorax -3.79574 3.6655 -4.14094
lowerneck -12.3365 1.09377 -11.1299
upperneck 44.5378 8.82104 2.8199
head 18.3775 3.27184 5.33719
rclavicle -7.95139e-016 4.05521e-014
rhumerus -15.3854 -0.930888 -80.2119
rradius 37.1641
rwrist 2.76024
rhand -17.0074 8.64605
rfingers 7.12502
rthumb 9.2282 -21.132
lclavicle -7.95139e-016 4.05521e-014
lhumerus -39.1221 8.18851 82.5014
lradius 32.9807
lwrist -7.30973
lhand -17.234 25.569
lfingers 7.12502
lthumb 9.00954 55.3566
rfemur -2.04331 -3.77845 24.306
rtibia 24.4729
rfoot -8.65202 -8.10614
rtoes -8.86392
lfemur -25.8626 -4.5585 -22.1801
ltibia 20.0622
lfoot 12.6608 -3.32713
ltoes 21.6833
376
root -3.81162 18.3096 12.4318 -171.364 76.0586 185.529
lowerback 12.0824 4.5683 6.52639
upperback 2.22913 7.03557 0.938105
thorax -3.73288 3.46291 -3.685
lowerneck -12.5647 1.1282 -11.6269
upperneck 44.517 9.01337 2.80915
head 18.3913 3.24268 5.45271
rclavicle -8.90555e-014 2.54444e-014
rhumerus -14.7539 -0.0458271 -80.1328
rradius 36.6655
rwrist 2.71267
rhand -16.9269 8.47296
rfingers 7.12502
rthumb 9.30583 -21.3017
lclavicle -8.90555e-014 2.54444e-014
lhumerus -39.0762 9.08669 82.6053
lradius 33.3232
lwrist -7.16921
lhand -17.4031 25.688
lfingers 7.12502
lthumb 8.84636 55.4826
rfemur -2.49859 -3.95666 24.2801
rtibia 24.5754
rfoot -8.76447 -8.05821
rtoes -9.2899
lfemur -25.7476 -3.34809 -22.7498
ltibia 20.1483
lfoot 10.0202 -7.69739
ltoes 4.10982
377
root -3.92829 18.3155 12.4624 -171.567 76.0994 185.704
lowerback 12.3405 4.44829 6.51833
upperback 2.37193 6.90154 1.02295
thorax -3.75019 3.40272 -3.59379
lowerneck -12.3282 0.929231 -11.7685
upperneck 44.4434 8.65061 2.84873
head 18.3136 3.08523 5.41693
rclavicle 1.27819e-013 -3.97569e-015
rhumerus -14.5079 -0.546991 -80.0931
rradius 36.1192
rwrist 3.15547
rhand -16.6355 8.61325
rfingers 7.12502
rthumb 9.58706 -21.1486
lclavicle 1.27819e-013 -3.97569e-015
lhumerus -39.0748 8.92096 82.7824
lradius 33.6321
lwrist -6.95242
lhand -17.4711 25.9747
lfingers 7.12502
lthumb 8.78071 55.772
rfemur -2.59764 -4.08864 24.2894
rtibia 24.7944
rfoot -9.05972 -8.01313
rtoes -9.33394
lfemur -25.2825 -4.14614 -22.1536
ltibia 20.4771
lfoot 8.3463 -6.85869
ltoes 6.34742
378
root -4.03686 18.318 12.4901 -175.45 76.2627 182.288
lowerback 12.748 4.63043 5.74705
upperback 2.4655 7.05096 0.713997
thorax -3.91232 3.47902 -3.5489
lowerneck -11.7169 0.505043 -11.5506
upperneck 44.4965 7.772 3.04794
head 18.2668 2.81939 5.31268
rclavicle -3.18055e-014 7.95139e-015
rhumerus -14.8504 -1.80146 -80.1025
rradius 35.8168
rwrist 3.59848
rhand -16.5671 8.82685
rfingers 7.12502
rthumb 9.65307 -20.932
lclavicle -3.18055e-014 7.95139e-015
lhumerus -39.1018 7.86211 82.9876
lradius 33.8639
lwrist -6.70438
lhand -17.2482 25.9249
lfingers 7.12502
lthumb 8.99588 55.7131
rfemur -2.42632 -4.24604 23.3035
rtibia 24.9767
rfoot -9.25823 -7.81599
rtoes -9.31251
lfemur -24.5036 -4.41437 -22.8369
ltibia 21.1483
lfoot 6.46685 -6.33564
ltoes 4.74316
379
root -4.16302 18.3181 12.5224 -174.577 76.237 182.778
lowerback 12.4824 4.65519 5.7981
upperback 2.26738 7.06983 0.684518
thorax -3.96354 3.47775 -3.59463
lowerneck -11.3709 0.21331 -11.4562
upperneck 44.5482 7.19121 3.17783
head 18.2621 2.62753 5.25632
rclavicle 9.14409e-014 2.14687e-014
rhumerus -15.0197 -2.33697 -80.0802
rradius 35.5155
rwrist 3.86464
rhand -16.6246 8.72099
rfingers 7.12502
rthumb 9.59754 -21.0404
lclavicle 9.14409e-014 2.14687e-014
lhumerus -39.0891 7.19755 83.2187
lradius 34.0776
lwrist -6.35637
lhand -17.5846 25.484
lfingers 7.12502
lthumb 8.67118 55.2859
rfemur -3.34585 -4.32123 23.5266
rtibia 24.9573
rfoot -9.01078 -7.81065
rtoes -10.3608
lfemur -25.0741 -4.67625 -22.3547
ltibia 22.1641
lfoot 5.10179 -5.94012
ltoes 2.39334
380
root -4.27251 18.3187 12.5613 -172.237 76.2879 185.736
lowerback 12.906 4.48957 6.23999
upperback 2.41419 6.96487 1.01551
thorax -4.04148 3.42723 -3.51316
lowerneck -11.26 0.0400749 -11.5844
upperneck 44.5765 6.91946 3.19681
head 18.2785 2.49468 5.24192
rclavicle -6.48038e-014 -1.59028e-014
rhumerus -14.9136 -2.31929 -80.0583
rradius 35.0415
rwrist 4.01024
rhand -16.6655 8.70692
rfingers 7.12502
rthumb 9.55807 -21.0563
lclavicle -6.48038e-014 -1.59028e-014
lhumerus -39.0808 6.81163 83.5214
lradius 34.3778
lwrist -5.78398
lhand -17.9486 25.2987
lfingers 7.12502
lthumb 8.31996 55.1148
rfemur -3.24544 -4.16769 24.3678
rtibia 25.0538
rfoot -8.9245 -7.98128
rtoes -11.0615
lfemur -24.5734 -4.85756 -21.2172
ltibia 23.3597
lfoot 3.71014 -5.64162
ltoes 0.788334
381
root -4.38837 18.3247 12.5932 -172.67 76.248 185.189
lowerback 12.7484 4.32413 5.99644
upperback 2.41152 6.70162 1.03524
thorax -4.01446 3.30071 -3.30893
lowerneck -11.2392 -0.113507 -11.8021
upperneck 44.6203 6.66111 3.33085
head 18.3155 2.36133 5.30434
rclavicle -5.08889e-014 1.11319e-014
rhumerus -14.7384 -2.28127 -80.1771
rradius 34.569
rwrist 3.99429
rhand -16.7147 8.70196
rfingers 7.12502
rthumb 9.5106 -21.0634
lclavicle -5.08889e-014 1.11319e-014
lhumerus -39.0078 6.63186 83.7012
lradius 34.5928
lwrist -5.36718
lhand -17.7238 25.5021
lfingers 7.12502
lthumb 8.53687 55.3095
rfemur -3.84142 -4.22215 24.2891
rtibia 25.137
rfoot -8.7827 -7.97749
rtoes -10.9891
lfemur -24.8164 -5.25305 -20.9804
ltibia 24.7891
lfoot 2.79296 -4.80235
ltoes 3.14003
382
root -4.50447 18.329 12.6189 -172.99 76.16 184.739
lowerback 12.577 4.18223 5.86996
upperback 2.35769 6.48216 1.00532
thorax -4.00827 3.19146 -3.22791
lowerneck -11.0614 -0.295091 -11.9539
upperneck 44.6269 6.29732 3.50547
head 18.2978 2.21113 5.34792
rclavicle -1.47101e-014 4.77083e-015
rhumerus -14.7677 -2.39543 -80.2853
rradius 34.213
rwrist 4.00413
rhand -16.9866 8.57606
rfingers 7.12502
rthumb 9.24828 -21.2011
lclavicle -1.47101e-014 4.77083e-015
lhumerus -38.9396 6.35388 83.8452
lradius 34.6876
lwrist -5.19015
lhand -17.7803 25.7494
lfingers 7.12502
lthumb 8.48239 55.5591
rfemur -4.41976 -4.26299 24.2222
rtibia 25.1448
rfoot -8.50504 -7.9928
rtoes -10.8836
lfemur -25.0337 -4.97911 -21.0422
ltibia 26.2861
lfoot 1.88287 -4.56691
ltoes -0.687802
383
root -4.61053 18.3394 12.6406 -174.005 76.2045 184.109
lowerback 12.7804 4.11584 5.66825
upperback 2.44958 6.3814 0.991838
thorax -4.05292 3.14581 -3.13169
lowerneck -10.7034 -0.512269 -11.9419
upperneck 44.5336 5.8503 3.5368
head 18.1943 2.04724 5.26565
rclavicle 4.09496e-014 2.62396e-014
rhumerus -14.9946 -2.79915 -80.2994
rradius 33.9663
rwrist 4.12315
rhand -17.0317 8.38464
rfingers 7.12502
rthumb 9.20476 -21.3945
lclavicle 4.09496e-014 2.62396e-014
lhumerus -38.7644 5.71804 84.1285
lradius 34.5379
lwrist -5.28344
lhand -18.2263 25.8078
lfingers 7.12502
lthumb 8.05197 55.6344
rfemur -4.40188 -4.16844 24.0258
rtibia 25.2694
rfoot -8.43412 -8.04043
rtoes -10.3343
lfemur -24.5212 -5.21595 -20.9474
ltibia 27.7563
lfoot 1.02314 -3.95221
ltoes -1.20339
384
root -4.70831 18.3506 12.6619 -174.862 76.3019 183.949
lowerback 13.2426 4.05413 5.53973
upperback 2.57953 6.31875 1.02531
thorax -4.19262 3.11717 -3.05326
lowerneck -10.1945 -0.692368 -11.9515
upperneck 44.386 5.42833 3.60077
head 18.0112 1.90217 5.19597
rclavicle -1.88845e-014 -2.78299e-014
rhumerus -15.336 -3.42236 -80.3407
rradius 33.7021
rwrist 4.43298
rhand -17.1463 8.16879
rfingers 7.12502
rthumb 9.09419 -21.6152
lclavicle -1.88845e-014 -2.78299e-014
lhumerus -38.6388 4.98859 84.3854
lradius 34.3646
lwrist -5.38762
lhand -18.6842 25.6986
lfingers 7.12502
lthumb 7.60996 55.5417
rfemur -4.02414 -4.07632 23.9331
rtibia 25.3849
rfoot -8.43394 -8.05219
rtoes -9.62573
lfemur -23.6302 -5.5412 -20.7685
ltibia 29.3707
lfoot 0.184101 -3.25415
ltoes -1.05982
385
root -4.80907 18.3592 12.681 -174.997 76.3607 184.239
lowerback 13.4433 3.97076 5.53029
upperback 2.63677 6.22674 1.0886
thorax -4.25846 3.07271 -2.98408
lowerneck -9.85682 -0.875392 -12.0629
upperneck 44.365 5.05958 3.72622
head 17.9438 1.75849 5.20257
rclavicle -1.98785e-016 8.74653e-015
rhumerus -15.7282 -4.032 -80.2877
rradius 33.5038
rwrist 4.80606
rhand -17.2216 8.28952
rfingers 7.12502
rthumb 9.02154 -21.4976
lclavicle -1.98785e-016 8.74653e-015
lhumerus -38.5181 4.58362 84.5244
lradius 34.2835
lwrist -5.32555
lhand -18.9983 25.6181
lfingers 7.12502
lthumb 7.30678 55.4719
rfemur -3.96663 -3.96011 23.9803
rtibia 25.4494
rfoot -8.32169 -7.96745
rtoes -8.42041
lfemur -23.1299 -5.71645 -20.5565
ltibia 31.092
lfoot -0.443073 -2.67554
ltoes -2.9388
386
root -4.9224 18.3641 12.7047 -174.95 76.2699 184.143
lowerback 13.255 3.87469 5.42958
upperback 2.52187 6.07067 1.0686
thorax -4.29813 2.99075 -2.91599
lowerneck -9.70065 -1.06351 -12.0429
upperneck 44.4745 4.7095 3.82873
head 18.0071 1.63018 5.19872
rclavicle 1.07145e-013 -1.35174e-014
rhumerus -16.1582 -4.62038 -80.2047
rradius 33.3431
rwrist 5.31078
rhand -16.5887 8.74909
rfingers 7.12502
rthumb 9.63216 -21.0107
lclavicle 1.07145e-013 -1.35174e-014
lhumerus -38.3866 4.50564 84.4646
lradius 34.2105
lwrist -5.38531
lhand -18.8599 25.3827
lfingers 7.12502
lthumb 7.44038 55.2319
rfemur -4.62065 -3.8278 24.0166
rtibia 25.6154
rfoot -8.03554 -7.78286
rtoes -6.1485
lfemur -23.316 -5.65826 -20.3651
ltibia 32.8095
lfoot -0.912153 -2.60138
ltoes -4.73955
387
root -5.03306 18.3703 12.7268 -175.16 76.2312 183.772
lowerback 13.0484 3.7995 5.25352
upperback 2.38086 5.92679 0.989955
thorax -4.35484 2.91372 -2.86925
lowerneck -9.4567 -1.20834 -11.8797
upperneck 44.544 4.37821 3.90541
head 18.0208 1.53465 5.15258
rclavicle -3.43897e-014 2.38542e-015
rhumerus -16.6688 -5.31231 -80.2542
rradius 33.25
rwrist 5.95323
rhand -15.9639 8.82666
rfingers 7.12502
rthumb 10.235 -20.9043
lclavicle -3.43897e-014 2.38542e-015
lhumerus -38.2984 4.15693 84.4664
lradius 34.1712
lwrist -5.19185
lhand -19.1417 25.2872
lfingers 7.12502
lthumb 7.16835 55.1458
rfemur -5.37409 -3.80894 23.9708
rtibia 25.9608
rfoot -7.76082 -7.61514
rtoes -4.99722
lfemur -23.3912 -5.42942 -20.2378
ltibia 34.4559
lfoot -1.13841 -2.61862
ltoes -4.28808
